<svg width="2475" height="2475" xmlns="http://www.w3.org/2000/svg" xmlns:xlink="http://www.w3.org/1999/xlink" xml:space="preserve" overflow="hidden"><g transform="translate(-963 0)"><path d="M1476.5 1466.93 1476.5 1466.93C1477.29 1469.15 1482.34 1484.8 1485.09 1487.55 1486.53 1488.99 1488.14 1490.26 1489.39 1491.85 1495.2 1499.2 1498 1502.99 1501.42 1510.75 1503.54 1515.57 1504.65 1520.89 1507.44 1525.36 1508.87 1527.65 1510.62 1529.77 1511.73 1532.23 1524.13 1559.77 1507.42 1527.9 1518.61 1550.27 1519.93 1552.91 1521.52 1555.41 1522.91 1558.01 1523.81 1559.7 1524.52 1561.5 1525.48 1563.16 1529.44 1569.94 1531 1569.39 1534.08 1578.63 1534.65 1580.35 1535.36 1582.03 1535.8 1583.78 1536.5 1586.62 1536.59 1589.6 1537.51 1592.37 1538.32 1594.8 1539.81 1596.96 1540.95 1599.25 1544.31 1614.35 1540.27 1599.65 1546.97 1614.71 1552.97 1628.22 1545.87 1616.87 1552.98 1629.32 1554.76 1632.43 1557.45 1635.49 1559 1638.77 1560.58 1642.14 1561.06 1646.1 1563.29 1649.08 1564.15 1650.23 1565.08 1651.33 1565.87 1652.52 1567.37 1654.77 1568.48 1657.28 1570.17 1659.39 1573.08 1663.03 1576.82 1665.97 1579.62 1669.7 1582.01 1672.89 1583.56 1676.62 1585.64 1680.01 1586.71 1681.77 1588.01 1683.4 1589.08 1685.17 1590.17 1686.99 1593.02 1693.51 1593.37 1694.62 1594.44 1698 1593.68 1702.21 1595.95 1704.93 1599.04 1708.63 1602.02 1711.95 1604.54 1716.1 1607.28 1720.59 1609.22 1725.57 1612.28 1729.85 1615.14 1733.86 1618.04 1737.84 1620.87 1741.87 1622.06 1743.57 1622.96 1745.46 1624.31 1747.03 1635.99 1760.66 1621.65 1744.68 1638.06 1759.92 1643.4 1764.88 1647.9 1770.75 1653.53 1775.38 1658.4 1779.39 1664.19 1782.49 1668.14 1787.41 1669.28 1788.84 1670.28 1790.41 1671.57 1791.71 1678.8 1798.93 1682.05 1800.1 1688.76 1808.03 1692.46 1812.41 1695.85 1817.04 1699.07 1821.78 1700.73 1824.22 1701.6 1827.15 1703.37 1829.51 1707.64 1835.2 1713.35 1839.8 1717.12 1845.84 1721.75 1853.25 1727.93 1863.52 1733.45 1869.04 1737.17 1872.76 1740.54 1876.87 1744.62 1880.2 1747.77 1882.78 1751.37 1884.9 1754.07 1887.94 1756.36 1890.52 1758.59 1893.15 1760.95 1895.67 1762.6 1897.45 1764.5 1899 1766.1 1900.83 1770.8 1906.17 1774.56 1912.39 1779.85 1917.15 1787.16 1923.73 1788.22 1924.41 1794.46 1930.9 1799.66 1936.3 1805.37 1941.27 1809.93 1947.22 1813.65 1952.09 1817.11 1957.17 1821.1 1961.83 1822.29 1963.22 1824.1 1963.97 1825.4 1965.27 1826.98 1966.85 1828.04 1968.91 1829.69 1970.42 1831.51 1972.08 1833.78 1973.18 1835.71 1974.72 1838.09 1976.62 1840.23 1978.79 1842.58 1980.73 1845.11 1982.81 1847.88 1984.57 1850.32 1986.74 1853.34 1989.45 1855.84 1992.7 1858.91 1995.34 1861.87 1997.87 1865.42 1999.66 1868.36 2002.21 1869.75 2003.41 1870.45 2005.27 1871.8 2006.51 1876.08 2010.43 1894.04 2025.24 1900.16 2030.56 1903.07 2033.09 1905.89 2035.72 1908.75 2038.3 1911.62 2040.87 1914.62 2043.3 1917.35 2046.03 1918.78 2047.46 1920.1 2049.02 1921.64 2050.32 1923.83 2052.17 1926.19 2053.82 1928.52 2055.48 1930.2 2056.68 1932.11 2057.57 1933.68 2058.92 1950.56 2073.39 1933.59 2059.69 1943.99 2070.09 1946.14 2072.24 1948.71 2073.95 1950.86 2076.1 1953.02 2078.25 1954.72 2080.82 1956.88 2082.97 1959.32 2085.41 1962.26 2087.33 1964.61 2089.85 1979.54 2105.84 1956.82 2085.29 1974.92 2101.88 1979.81 2106.36 1981.32 2106.27 1987.81 2110.47 1989.88 2111.81 1991.94 2113.19 1993.83 2114.76 1995.39 2116.06 1996.42 2117.97 1998.13 2119.06 2002.78 2122.02 2007.95 2124.06 2012.74 2126.79 2015.98 2128.65 2018.96 2130.93 2022.19 2132.81 2025.84 2134.94 2029.73 2136.65 2033.36 2138.82 2039.77 2142.66 2045.58 2147.51 2052.27 2150.85 2053.41 2151.42 2054.61 2151.9 2055.7 2152.57 2060.64 2155.62 2065.67 2158.54 2070.31 2162.02 2072.6 2163.74 2074.8 2165.59 2077.19 2167.18 2079.11 2168.46 2081.24 2169.39 2083.2 2170.61 2089.55 2174.55 2096.05 2178.27 2102.11 2182.64 2107.26 2186.36 2112.12 2190.54 2117.58 2193.81 2146.75 2211.31 2125.19 2198.23 2141.64 2208.42 2145.36 2210.72 2148.9 2213.33 2152.81 2215.29 2165.11 2221.44 2142.88 2210.25 2162.26 2220.45 2165.66 2222.24 2169.14 2223.88 2172.58 2225.6 2174.01 2227.03 2175.17 2228.8 2176.87 2229.9 2179.24 2231.42 2182.01 2232.22 2184.61 2233.33 2189.87 2235.59 2188.11 2234.92 2194.06 2235.91 2195.49 2236.48 2196.85 2237.31 2198.36 2237.63 2205.84 2239.23 2208.52 2238.43 2216.4 2236.77 2219.79 2236.06 2226.31 2233.81 2229.29 2232.47 2232.8 2230.9 2236.17 2229.04 2239.6 2227.32 2242.47 2224.45 2245.01 2221.23 2248.2 2218.73 2249.13 2218 2250.58 2218.4 2251.64 2217.87 2253.48 2216.94 2255.17 2215.71 2256.79 2214.43 2259.19 2212.55 2261.21 2210.22 2263.67 2208.42 2266.91 2206.03 2280.55 2199.65 2281.71 2198.97 2285.15 2196.96 2288.66 2195.08 2292.03 2192.95 2294.11 2191.64 2296.13 2190.22 2298.04 2188.66 2299.29 2187.63 2300.07 2186.02 2301.48 2185.22 2329.65 2169.12 2296.23 2190.6 2315.23 2179.2 2329.19 2170.83 2324.72 2171.93 2339.29 2165.46 2340.37 2164.98 2341.58 2164.88 2342.73 2164.6 2343.59 2163.74 2344.29 2162.69 2345.3 2162.02 2351.19 2158.1 2358.69 2156.17 2363.35 2150.85 2365.36 2148.56 2367.12 2146.03 2369.37 2143.98 2370.6 2142.85 2372.35 2142.43 2373.66 2141.4 2376.38 2139.27 2378.96 2136.96 2381.4 2134.53 2382.98 2132.94 2384.08 2130.92 2385.69 2129.37 2388.42 2126.75 2401.63 2115.62 2407.18 2109.61 2409.24 2107.37 2411.24 2105.07 2413.19 2102.74 2414.11 2101.64 2414.72 2100.27 2415.77 2099.3 2422.76 2092.81 2429.49 2085.94 2437.26 2080.4 2439.26 2078.96 2441.4 2077.7 2443.27 2076.1 2445.42 2074.26 2447.17 2071.97 2449.29 2070.09 2452.33 2067.38 2455.66 2065.02 2458.74 2062.35 2459.96 2061.29 2460.88 2059.89 2462.18 2058.92 2464.34 2057.3 2466.82 2056.15 2469.05 2054.62 2475.01 2050.54 2483.68 2044.01 2488.82 2039.16 2490.74 2037.34 2492.1 2035.01 2493.97 2033.14 2495.27 2031.84 2496.97 2031 2498.27 2029.7 2500.14 2027.84 2501.5 2025.5 2503.43 2023.69 2531.06 1997.68 2497.48 2030.63 2520.61 2010.8 2522.31 2009.35 2523.22 2007.11 2524.91 2005.65 2529.55 2001.64 2534.94 1998.55 2539.52 1994.48 2542.1 1992.19 2544.74 1989.97 2547.25 1987.6 2552.99 1982.21 2554.78 1979.45 2561 1974.72 2568.18 1969.25 2573.13 1967.28 2579.05 1960.97 2581.28 1958.59 2582.91 1955.69 2585.06 1953.24 2588.93 1948.81 2592.94 1944.5 2597.09 1940.35 2599.85 1937.59 2607.78 1931.18 2610.84 1927.46 2613.32 1924.45 2615.18 1920.97 2617.72 1918.01 2620.36 1914.93 2623.6 1912.42 2626.31 1909.42 2639.56 1894.78 2628.3 1904.97 2641.78 1892.23 2644.29 1889.87 2647.02 1887.74 2649.52 1885.36 2653.32 1881.72 2656.96 1877.91 2660.69 1874.19 2662.98 1871.9 2665.45 1869.78 2667.56 1867.32 2669.28 1865.31 2670.91 1863.23 2672.72 1861.3 2675.21 1858.64 2677.93 1856.21 2680.45 1853.57 2683.95 1849.9 2687.28 1846.08 2690.76 1842.4 2692.44 1840.64 2694.83 1839.42 2695.92 1837.24 2698.43 1832.23 2697.97 1832.64 2702.79 1826.93 2704.1 1825.39 2705.81 1824.21 2707.09 1822.64 2709.55 1819.62 2711.4 1816.12 2713.97 1813.19 2715.44 1811.5 2717.62 1810.55 2719.12 1808.89 2720.51 1807.36 2721.22 1805.31 2722.56 1803.74 2727.82 1797.56 2733.5 1791.76 2738.89 1785.69 2740.6 1783.77 2748.64 1773.92 2749.2 1772.81 2752.06 1767.08 2754.24 1760.95 2757.79 1755.62 2759.51 1753.04 2761 1750.29 2762.95 1747.89 2766.67 1743.31 2770.99 1739.15 2774.12 1734.14 2775.55 1731.85 2776.8 1729.43 2778.42 1727.27 2780.25 1724.83 2782.63 1722.85 2784.43 1720.39 2794.32 1706.91 2781.09 1722.27 2791.31 1707.51 2792.46 1705.84 2794.44 1704.87 2795.6 1703.21 2798.48 1699.11 2800.56 1694.49 2803.34 1690.32 2805.15 1687.61 2807.58 1685.33 2809.35 1682.59 2810.75 1680.44 2811.54 1677.95 2812.79 1675.72 2814.12 1673.36 2815.81 1671.22 2817.09 1668.84 2817.82 1667.48 2818.08 1665.91 2818.81 1664.55 2820.38 1661.6 2822.11 1658.73 2823.96 1655.96 2824.98 1654.43 2826.44 1653.22 2827.4 1651.66 2828.74 1649.48 2829.5 1646.97 2830.84 1644.79 2832.66 1641.8 2835.08 1639.21 2836.85 1636.19 2837.96 1634.31 2838.3 1632.04 2839.43 1630.18 2843.18 1624 2847.45 1618.15 2851.46 1612.14 2852.61 1610.42 2853.88 1608.77 2854.9 1606.98 2869.92 1580.7 2847.61 1619.41 2861.78 1595.81 2864.15 1591.85 2865.97 1587.54 2868.65 1583.78 2870.08 1581.78 2871.72 1579.91 2872.95 1577.77 2874.03 1575.87 2874.5 1573.68 2875.52 1571.75 2876.8 1569.37 2878.5 1567.24 2879.82 1564.88 2881.08 1562.65 2882.05 1560.27 2883.26 1558.01 2884.35 1555.97 2885.55 1554 2886.7 1551.99 2891.51 1535.14 2883.22 1562.38 2896.15 1532.23 2904.29 1513.24 2898.44 1517.82 2906.46 1512.47 2909.81 1502.43 2906.06 1512.15 2911.62 1502.16 2913.48 1498.8 2914.87 1495.19 2916.77 1491.85 2917.92 1489.84 2919.22 1487.92 2920.21 1485.83 2927.65 1470.21 2923.59 1478.31 2927.95 1463.5 2933.34 1445.17 2926.81 1470.6 2930.52 1455.76 2930.9 1450.46 2930.98 1444.03 2932.24 1438.58 2932.71 1436.55 2933.46 1434.59 2933.96 1432.56 2935.12 1427.95 2934.43 1427.85 2936.54 1423.11 2936.96 1422.17 2939.24 1420.21 2938.26 1420.54 2935.69 1421.39 2933.75 1423.52 2931.38 1424.83 2923.92 1428.98 2923.25 1428.95 2915.91 1431.71 2899.54 1444.8 2923.89 1426.14 2906.46 1436.86 2904.21 1438.24 2902.57 1440.45 2900.45 1442.02 2897.12 1444.47 2893.4 1446.35 2890.13 1448.89 2888.22 1450.38 2886.85 1452.5 2884.98 1454.04 2877.98 1459.81 2876.35 1460.45 2869.51 1464.35 2855.05 1481.71 2881.84 1450.97 2853.18 1475.52 2851.18 1477.24 2849.45 1479.35 2847.17 1480.68 2845.9 1481.42 2844.28 1481.16 2842.87 1481.54 2839.98 1482.31 2837.15 1483.29 2834.28 1484.12 2833.14 1484.44 2831.95 1484.57 2830.84 1484.98 2828.79 1485.72 2826.64 1486.34 2824.82 1487.55 2820.58 1490.38 2817.45 1494.93 2812.79 1497 2810.21 1498.15 2807.69 1499.42 2805.06 1500.44 2802.53 1501.43 2799.82 1501.95 2797.32 1503.02 2795.79 1503.68 2794.52 1504.85 2793.03 1505.6 2791.65 1506.29 2790.09 1506.59 2788.73 1507.31 2785.21 1509.18 2781.73 1511.12 2778.42 1513.33 2773.26 1516.77 2768.26 1520.45 2762.95 1523.64 2761.52 1524.5 2760.13 1525.44 2758.65 1526.22 2753.54 1528.88 2748.65 1532.13 2743.18 1533.95 2727.69 1539.11 2742.05 1534.78 2730.29 1537.39 2729.41 1537.58 2728.6 1538.05 2727.72 1538.25 2720.93 1539.75 2722.78 1538.4 2714.83 1540.82 2710.75 1542.06 2706.84 1543.77 2702.79 1545.12 2701.67 1545.49 2700.49 1545.64 2699.36 1545.98 2693.07 1547.86 2685.49 1550.64 2678.73 1551.99 2675.32 1552.68 2671.83 1552.99 2668.42 1553.71 2666.38 1554.14 2664.42 1554.89 2662.41 1555.43 2660.12 1556.04 2657.79 1556.44 2655.53 1557.15 2653.19 1557.88 2650.92 1558.78 2648.66 1559.73 2644.04 1561.65 2639.68 1564.24 2634.91 1565.74 2629.6 1567.41 2624.01 1567.97 2618.58 1569.18 2616.27 1569.69 2614.01 1570.4 2611.7 1570.9 2609.12 1571.45 2605.7 1571.67 2603.11 1572.61 2597.91 1574.5 2593.07 1577.54 2587.64 1578.63 2579.07 1580.34 2575.2 1580.93 2566.16 1583.78 2556.21 1586.92 2572.07 1584.52 2555.85 1587.22 2544.16 1589.17 2543.13 1588.63 2532.64 1589.8 2514.65 1591.8 2544.53 1589.38 2514.6 1591.52 2512.88 1591.8 2511.17 1592.17 2509.44 1592.37 2501.72 1593.31 2493.87 1593.43 2486.24 1594.95 2484.81 1595.24 2483.36 1595.46 2481.94 1595.81 2479.92 1596.32 2477.96 1597.08 2475.93 1597.53 2472.8 1598.22 2469.62 1598.68 2466.47 1599.25 2464.47 1600.11 2462.56 1601.23 2460.46 1601.83 2454.51 1603.52 2448.47 1604.87 2442.41 1606.12 2440.15 1606.59 2437.84 1606.8 2435.54 1606.98 2426.95 1607.66 2418.35 1608.13 2409.76 1608.7 2403.17 1609.85 2396.6 1611.14 2389.99 1612.14 2361.77 1616.37 2389.7 1610.9 2356.48 1616.43L2346.16 1618.15C2343.29 1618.67 2340.46 1619.44 2337.57 1619.87 2334.72 1620.3 2331.84 1620.44 2328.98 1620.73 2325.25 1620.44 2321.51 1620.31 2317.81 1619.87 2314.35 1619.45 2310.96 1618.52 2307.49 1618.15 2302.93 1617.66 2298.33 1617.58 2293.74 1617.29 2284.18 1618.98 2275.87 1620.66 2266.24 1621.59 2261.67 1622.03 2257.08 1622.16 2252.49 1622.45 2243.33 1622.16 2234.17 1621.59 2225 1621.59 2223.81 1621.59 2222.73 1622.33 2221.56 1622.45 2208.68 1623.76 2195.78 1624.74 2182.89 1625.88 2174.16 1628.79 2181.12 1626.87 2170 1628.46 2168.55 1628.67 2167.16 1629.24 2165.7 1629.32 2157.12 1629.81 2148.51 1629.89 2139.92 1630.18L2085.78 1629.32C2081.48 1629.21 2077.18 1628.81 2072.89 1628.46 2059.71 1627.38 2046.48 1626.66 2033.36 1625.02 2016.47 1622.91 2024.21 1623.72 2010.16 1622.45 2006.15 1621.59 2002.2 1620.38 1998.13 1619.87 1993 1619.23 1987.81 1619.42 1982.66 1619.01 1976.92 1618.56 1971.2 1617.86 1965.47 1617.29 1956.97 1615.17 1962.16 1616.23 1945.71 1615.57L1919.07 1614.71C1915.06 1614.14 1911.08 1613.2 1907.04 1613L1889.85 1612.14C1886.66 1611.95 1873.84 1611.24 1869.22 1610.42 1850.46 1607.07 1858.12 1608.67 1846.02 1604.4 1843.46 1603.5 1840.72 1603.04 1838.29 1601.83 1836 1600.68 1833.8 1599.31 1831.41 1598.39 1830.05 1597.86 1828.52 1597.91 1827.12 1597.53 1825.37 1597.05 1823.76 1596.03 1821.96 1595.81 1811.97 1594.59 1791.88 1593.23 1791.88 1593.23 1789.02 1592.66 1786.14 1592.15 1783.29 1591.52 1778.41 1590.43 1773.61 1588.9 1768.68 1588.08 1766.96 1587.79 1765.21 1587.66 1763.52 1587.22 1758.61 1585.94 1753.85 1584.13 1748.91 1582.92 1742.09 1581.26 1735.18 1580 1728.29 1578.63 1709.65 1574.9 1720.01 1577.42 1711.1 1575.19 1697.37 1566.95 1699.36 1567.4 1684.46 1561.44 1683.37 1561.01 1682.15 1560.96 1681.03 1560.58 1677.84 1559.52 1674.63 1558.52 1671.57 1557.15 1663.39 1553.48 1659.14 1550.28 1651.81 1547.7 1648.39 1546.49 1644.6 1546.12 1641.5 1544.26 1635.65 1540.75 1638.78 1542.21 1632.04 1539.96 1630.32 1538.53 1628.81 1536.82 1626.89 1535.67 1624.26 1534.09 1612.09 1529.36 1609.7 1528.79 1606.9 1528.13 1603.97 1528.22 1601.11 1527.94 1594.09 1524.43 1601.69 1527.8 1592.51 1525.36 1589.89 1524.66 1587.36 1523.64 1584.78 1522.78 1581.05 1519.92 1577.48 1516.84 1573.61 1514.19 1568.91 1510.98 1568.51 1511.8 1563.29 1510.75 1556.7 1509.43 1563.13 1510.44 1555.56 1508.17 1554.16 1507.75 1552.7 1507.6 1551.26 1507.31 1549.83 1506.46 1548.49 1505.43 1546.97 1504.74 1538.16 1500.73 1545.36 1505.22 1537.51 1501.3 1535.22 1500.15 1532.54 1497.41 1530.64 1496.15 1525.28 1492.57 1529.2 1495.86 1524.62 1493.57 1522.56 1492.53 1520.61 1491.28 1518.61 1490.13 1517.75 1488.98 1517.04 1487.71 1516.03 1486.69 1515.3 1485.96 1514.29 1485.58 1513.45 1484.98 1512.29 1484.14 1511.1 1483.33 1510.01 1482.4 1505.84 1478.82 1509.05 1480.2 1503.14 1477.24 1494.05 1472.7 1503.29 1478.58 1495.41 1472.95 1494.57 1472.35 1493.56 1471.96 1492.83 1471.23 1489.13 1467.53 1490.7 1467.16 1486.81 1465.21 1486.56 1465.09 1478.22 1466.65 1476.5 1466.93Z" stroke="#156082" stroke-width="9.16667" stroke-miterlimit="8" fill="#156082" fill-rule="evenodd"/><path d="M2987.65 564.609C2713.92 542.492 2458.83 417.151 2274.05 213.984 2239.18 173.533 2178.12 169.011 2137.67 203.884 2134.05 206.997 2130.68 210.373 2127.56 213.984 1942.81 417.141 1687.67 542.378 1413.94 564.274 1363.03 569.214 1324.31 612.204 1324.71 663.352L1324.71 913.017C1324.71 1456.02 1669.02 1952.72 2146.9 2260.06 2179.69 2281.3 2221.9 2281.3 2254.69 2260.06 2732.6 1952.83 3076.88 1456.38 3076.88 913.378L3076.88 663.738C3077.41 612.534 3038.63 569.456 2987.65 564.609ZM3025.32 913.352C3025.32 1407.97 2726.82 1895.23 2226.82 2216.78 2211.01 2227.08 2190.6 2227.08 2174.8 2216.78 1674.79 1895.26 1376.27 1407.89 1376.27 913.12L1376.27 663.455C1375.81 639.151 1393.94 618.497 1418.09 615.785 1704.93 593.074 1972.32 461.835 2165.75 248.815 2181.48 229.422 2209.96 226.458 2229.35 242.194 2231.79 244.166 2234 246.385 2235.97 248.815 2429.45 461.817 2696.79 593.129 2983.63 616.043 3007.81 618.742 3025.94 639.416 3025.47 663.738Z" fill="#156082"/><path d="M2945.58 1397.74C2803.29 1573.51 2347.2 1667.76 1926.86 1608.26 1733.94 1580.95 1573.02 1524.02 1476.64 1448.99" stroke="#156082" stroke-width="27.5" stroke-miterlimit="8" fill="none" fill-rule="evenodd"/><text fill="#F2F2F2" font-family="Aptos,Aptos_MSFontService,sans-serif" font-weight="400" font-size="303" transform="matrix(1 0 0 1 1866.45 1946)">ISMS</text><text fill="#156082" font-family="Aptos,Aptos_MSFontService,sans-serif" font-weight="400" font-size="527" transform="matrix(1 0 0 1 1613.33 1131)">ARPI</text></g></svg>